HIERARCHY
ROOT Hips
{
	OFFSET 0.00000 0.00000 0.00000
	CHANNELS 6 Xposition Yposition Zposition Yrotation Zrotation Xrotation 
	JOINT Lumbar
	{
		OFFSET 0 0 0
		CHANNELS 3 Zrotation Xrotation Yrotation
		JOINT Neck
		{
			OFFSET 0.00 0.2701 0.00
			CHANNELS 3 Zrotation Xrotation Yrotation
			End Site
			{
				OFFSET 0.00 0.1379 0.00
			}
		}
		JOINT RightShoulder
		{
			OFFSET 0.0119 0.2289 0.1181
			CHANNELS 3 Zrotation Xrotation Yrotation
			JOINT RightElbow
			{
				OFFSET 0.00 -0.1475 0.00
				CHANNELS 2 Zrotation Yrotation
				JOINT RightWrist
				{
					OFFSET 0.00 -0.1605 0.00
					CHANNELS 2 Zrotation Xrotation
					End Site
					{
						OFFSET 0.0040 -0.1068 0.0006
					}
				}
			}
		}
		JOINT LeftShoulder
		{
			OFFSET 0.0119 0.2289 -0.1181
			CHANNELS 3 Zrotation Xrotation Yrotation
			JOINT LeftElbow
			{
				OFFSET 0.00 -0.1475 0.00
				CHANNELS 2 Zrotation Yrotation
				JOINT LeftWrist
				{
					OFFSET 0.00 -0.1605 0.00
					CHANNELS 2 Zrotation Xrotation
					End Site
					{
						OFFSET 0.0040 -0.1068 -0.0006
					}
				}
			}
		}
	}
	JOINT RightHip
	{
		OFFSET 0.0316 -0.0424 0.0458
		CHANNELS 3 Zrotation Xrotation Yrotation
		JOINT RightKnee
		{
			OFFSET 0.00 -0.2438 0.00
			CHANNELS 1 Zrotation
			JOINT RightAnkle
			{
				OFFSET 0.00 -0.2449 0.00
				CHANNELS 3 Zrotation Xrotation Yrotation
				End Site
				{
					OFFSET 0.1237 -0.0542 0.0051
				}
			}
		}
	}
	JOINT LeftHip
	{
		OFFSET 0.0316 -0.0424 -0.0458
		CHANNELS 3 Zrotation Xrotation Yrotation
		JOINT LeftKnee
		{
			OFFSET 0.00 -0.2438 0.00
			CHANNELS 1 Zrotation
			JOINT LeftAnkle
			{
				OFFSET 0.00 -0.2449 0.00
				CHANNELS 3 Zrotation Xrotation Yrotation
				End Site
				{
					OFFSET 0.1237 -0.0542 -0.0051
				}
			}
		}
	}
}
MOTION
Frames: 13
Frame Time: 0.02
-6e-05 9e-05 0.00014 -176.58591 -45.89559 0.66269 56.71772 -0.79844 -2.4583 -9.6325 -1.30942 -0.07536 167.36729 -75.14852 -43.80667 15.72029 86.40574 -5.50397 -10.94719 -7.22214 104.63733 89.9985 5.32886 -32.02824 -27.12726 -5.55763 48.55202 -2.38229 -6.43657 -18.51447 -7.47764 -4.70414 -3.18512 53.21206 3.82599 0.72117 -24.19288 -9.04931 5.16459 3.51968
0.00039 0.00012 0.00013 -176.56415 -45.86951 0.66474 56.65965 -0.81002 -2.46374 -9.68654 -1.27785 -0.0759 167.29945 -75.09233 -43.92134 15.71019 86.41268 -5.47203 -10.94488 -7.39085 104.62629 89.99877 5.32886 -31.90674 -27.10757 -5.56191 48.57025 -2.38686 -6.43892 -18.51614 -7.48766 -4.70746 -3.1878 53.23571 3.85696 0.86593 -24.1942 -9.03372 5.14585 3.508
0.00084 0.00015 0.00011 -176.54253 -45.84348 0.66678 56.60161 -0.82154 -2.46911 -9.74042 -1.24641 -0.07643 167.23152 -75.03633 -44.03595 15.70007 86.41961 -5.44013 -10.94253 -7.55917 104.6153 89.99749 5.32886 -31.78602 -27.08744 -5.56608 48.5885 -2.39139 -6.44108 -18.51781 -7.49766 -4.71078 -3.19048 53.25933 3.88792 1.01056 -24.19551 -9.01816 5.12714 3.49633
0.00129 0.00018 0.0001 -176.52085 -45.81747 0.66883 56.5437 -0.83309 -2.47453 -9.79429 -1.21494 -0.07696 167.16387 -74.98032 -44.15028 15.68998 86.42653 -5.40827 -10.94021 -7.72739 104.60425 89.99902 5.32886 -31.66452 -27.06815 -5.57043 48.60668 -2.39594 -6.44339 -18.51948 -7.50765 -4.71409 -3.19315 53.2829 3.91881 1.15493 -24.19682 -9.00261 5.10845 3.48468
0.00174 0.00021 8e-05 -176.49903 -45.79142 0.67091 56.48578 -0.84469 -2.48002 -9.84831 -1.18334 -0.07749 167.09633 -74.92413 -44.26467 15.67995 86.43347 -5.37641 -10.93794 -7.8959 104.59326 89.99853 5.32886 -31.54328 -27.04834 -5.57464 48.62483 -2.40056 -6.44597 -18.52114 -7.51764 -4.71739 -3.19582 53.3065 3.94969 1.29931 -24.19813 -8.98702 5.08974 3.47301
0.00219 0.00023 7e-05 -176.47784 -45.76545 0.67284 56.42749 -0.85603 -2.48513 -9.90188 -1.15225 -0.07804 167.02753 -74.86853 -44.37976 15.66963 86.44038 -5.34442 -10.93545 -8.06378 104.58236 89.99325 5.32887 -31.42437 -27.02691 -5.5786 48.64329 -2.4049 -6.44724 -18.52282 -7.52768 -4.72075 -3.19851 53.33017 3.98082 1.44447 -24.19943 -8.97153 5.07104 3.46135
0.00264 0.00026 6e-05 -176.45537 -45.73934 0.67507 56.37006 -0.86791 -2.49103 -9.95632 -1.12015 -0.07854 166.96157 -74.81178 -44.49307 15.65987 86.44732 -5.31272 -10.93339 -8.23285 104.57096 90.00855 5.32883 -31.29774 -27.01179 -5.58378 48.66106 -2.40979 -6.45111 -18.52446 -7.53761 -4.724 -3.20115 53.35362 4.0114 1.58791 -24.20077 -8.95586 5.05233 3.44968
0.00309 0.00029 4e-05 -176.43412 -45.71338 0.67702 56.31175 -0.87927 -2.49617 -10.00989 -1.089 -0.07911 166.89258 -74.75613 -44.6085 15.64965 86.45424 -5.28075 -10.93094 -8.40065 104.5606 89.98492 5.3289 -31.18398 -26.98529 -5.58651 48.67955 -2.41418 -6.45266 -18.52615 -7.54764 -4.72734 -3.20384 53.37735 4.04249 1.73289 -24.20207 -8.94037 5.03363 3.43802
0.00355 0.00032 3e-05 -176.41423 -45.6875 0.67867 56.25264 -0.89009 -2.50049 -10.06271 -1.05895 -0.07965 166.82142 -74.70165 -44.72472 15.63865 86.46112 -5.24843 -10.92796 -8.56766 104.54925 89.99263 5.32886 -31.06314 -26.96686 -5.59149 48.69861 -2.41792 -6.45102 -18.52785 -7.55782 -4.73082 -3.20661 53.40116 4.07421 1.88005 -24.2033 -8.92503 5.01494 3.42638
0.00398 0.00035 1e-05 -176.38612 -45.66086 0.68218 56.19897 -0.90429 -2.50984 -10.12079 -1.02236 -0.08004 166.76738 -74.63991 -44.83096 15.63146 86.46819 -5.21808 -10.92789 -8.74151 104.5368 90.05727 5.32871 -30.91447 -26.96808 -5.59929 48.71346 -2.42528 -6.46666 -18.52936 -7.5672 -4.73362 -3.20896 53.42373 4.10235 2.01558 -24.20487 -8.90862 4.99617 3.41462
0.00446 0.00038 -0 -176.3756 -45.63603 0.68166 56.13333 -0.9112 -2.50842 -10.16717 -0.9997 -0.08095 166.6743 -74.59383 -44.96168 15.6167 86.4749 -5.18359 -10.92178 -8.89942 104.53098 89.85039 5.32925 -30.86829 -26.88566 -5.59107 48.73777 -2.42508 -6.44655 -18.53136 -7.57823 -4.73775 -3.21215 53.44941 4.138 2.17503 -24.20575 -8.8946 4.97762 3.40315
0.00504 0.00042 -3e-05 -176.41198 -45.61448 0.67068 56.03824 -0.89895 -2.47832 -10.18527 -1.01482 -0.08136 166.49694 -74.58821 -45.13325 15.5769 86.48026 -5.13712 -10.89739 -9.02736 104.50685 90.18026 5.32833 -30.73289 -26.93178 -5.62452 48.78402 -2.4035 -6.32244 -18.53403 -7.59403 -4.74619 -3.21809 53.47979 4.19488 2.40518 -24.2046 -8.88622 4.95929 3.3922
0.00566 0.00047 -5e-05 -176.46641 -45.59518 0.65543 55.93035 -0.87912 -2.43718 -10.19039 -1.04408 -0.08261 166.2762 -74.59879 -45.3349 15.53017 86.48528 -5.08629 -10.86689 -9.13785 104.49521 90.03319 5.32887 -30.75923 -26.83753 -5.62848 48.84072 -2.37452 -6.16413 -18.53735 -7.61141 -4.7557 -3.22471 53.51418 4.25922 2.6579 -24.20277 -8.88043 4.94124 3.38158
